<mxfile host="app.diagrams.net" agent="Mozilla/5.0 (Windows NT 10.0; Win64; x64) AppleWebKit/537.36 (KHTML, like Gecko) Chrome/136.0.0.0 Safari/537.36 Edg/136.0.0.0" version="27.0.6">
  <diagram name="Page-1" id="2wTYA3fLwxflKQkBg7Rv">
    <mxGraphModel dx="1034" dy="1773" grid="1" gridSize="10" guides="1" tooltips="1" connect="1" arrows="1" fold="1" page="1" pageScale="1" pageWidth="827" pageHeight="1169" math="0" shadow="0">
      <root>
        <mxCell id="0" />
        <mxCell id="1" parent="0" />
        <mxCell id="fGi1fhkodJp15u_EXN5P-1" value="" style="ellipse;whiteSpace=wrap;html=1;" parent="1" vertex="1">
          <mxGeometry x="350" y="-220" width="120" height="80" as="geometry" />
        </mxCell>
        <mxCell id="2YTlePWZeeAam2Vw0DvU-2" style="edgeStyle=orthogonalEdgeStyle;rounded=0;orthogonalLoop=1;jettySize=auto;html=1;exitX=0.5;exitY=0;exitDx=0;exitDy=0;entryX=0.5;entryY=1;entryDx=0;entryDy=0;" parent="1" source="fGi1fhkodJp15u_EXN5P-2" target="fGi1fhkodJp15u_EXN5P-6" edge="1">
          <mxGeometry relative="1" as="geometry" />
        </mxCell>
        <mxCell id="fGi1fhkodJp15u_EXN5P-2" value="" style="ellipse;whiteSpace=wrap;html=1;" parent="1" vertex="1">
          <mxGeometry x="350" y="320" width="120" height="80" as="geometry" />
        </mxCell>
        <mxCell id="fGi1fhkodJp15u_EXN5P-4" value="" style="rounded=1;whiteSpace=wrap;html=1;" parent="1" vertex="1">
          <mxGeometry x="350" y="-140" width="120" height="60" as="geometry" />
        </mxCell>
        <mxCell id="fGi1fhkodJp15u_EXN5P-5" value="" style="endArrow=classic;html=1;rounded=0;exitX=0.25;exitY=1;exitDx=0;exitDy=0;entryX=0.5;entryY=0;entryDx=0;entryDy=0;" parent="1" source="fGi1fhkodJp15u_EXN5P-4" edge="1" target="fGi1fhkodJp15u_EXN5P-6">
          <mxGeometry width="50" height="50" relative="1" as="geometry">
            <mxPoint x="380" y="130" as="sourcePoint" />
            <mxPoint x="380" y="90" as="targetPoint" />
            <Array as="points">
              <mxPoint x="380" y="-20" />
              <mxPoint x="384" y="120" />
              <mxPoint x="384" y="130" />
            </Array>
          </mxGeometry>
        </mxCell>
        <mxCell id="fGi1fhkodJp15u_EXN5P-6" value="" style="rhombus;whiteSpace=wrap;html=1;" parent="1" vertex="1">
          <mxGeometry x="330" y="160" width="110" height="90" as="geometry" />
        </mxCell>
        <mxCell id="2YTlePWZeeAam2Vw0DvU-1" value="" style="rounded=1;whiteSpace=wrap;html=1;" parent="1" vertex="1">
          <mxGeometry x="440" y="175" width="120" height="60" as="geometry" />
        </mxCell>
      </root>
    </mxGraphModel>
  </diagram>
</mxfile>
